<svg width="584" height="442" viewBox="0 0 584 442" fill="none" xmlns="http://www.w3.org/2000/svg">
<g filter="url(#filter0_d_19_800)">
<path d="M109 103.969C109 90.179 120.179 79 133.969 79H501V329H136.347C121.244 329 109 316.756 109 301.653V103.969Z" fill="#F9F9F9"/>
</g>
<mask id="mask0_19_800" style="mask-type:alpha" maskUnits="userSpaceOnUse" x="109" y="79" width="392" height="250">
<path d="M109 103.969C109 90.179 120.179 79 133.969 79H501V329H136.347C121.244 329 109 316.756 109 301.653V103.969Z" fill="#F9F9F9"/>
</mask>
<g mask="url(#mask0_19_800)">
<rect x="24.5945" y="81.5945" width="168.811" height="139.811" rx="8.9175" stroke="#E8E8E8" stroke-width="1.189"/>
<rect x="57.5945" y="115.594" width="168.811" height="139.811" rx="8.9175" stroke="#E8E8E8" stroke-width="1.189"/>
<rect x="90.5945" y="151.594" width="168.811" height="139.811" rx="8.9175" stroke="#E8E8E8" stroke-width="1.189"/>
<rect x="241.594" y="-35.4055" width="168.811" height="139.811" rx="8.9175" stroke="#E8E8E8" stroke-width="1.189"/>
<rect x="282.594" y="69.5945" width="168.811" height="139.811" rx="8.9175" stroke="#E8E8E8" stroke-width="1.189"/>
<rect x="320.594" y="44.5945" width="168.811" height="139.811" rx="8.9175" stroke="#E8E8E8" stroke-width="1.189"/>
</g>
<rect x="410" y="79" width="112" height="250" rx="22.591" fill="url(#paint0_angular_19_800)"/>
<rect x="140.509" y="150.495" width="60.639" height="52.316" rx="8.9175" fill="#C4C4C4" fill-opacity="0.16" stroke="black" stroke-width="1.189"/>
<path d="M140.509 159.412C140.509 154.487 144.501 150.495 149.426 150.495H159.532V202.811H149.426C144.501 202.811 140.509 198.818 140.509 193.893V159.412Z" fill="#C4C4C4" fill-opacity="0.16" stroke="black" stroke-width="1.189"/>
<path d="M140.509 159.412C140.509 154.487 144.501 150.495 149.426 150.495H159.532V182.598H149.426C144.501 182.598 140.509 178.605 140.509 173.68V159.412Z" fill="#C4C4C4" fill-opacity="0.16" stroke="black" stroke-width="1.189"/>
<path d="M140.509 159.412C140.509 154.487 144.501 150.495 149.426 150.495H159.532V194.488H149.426C144.501 194.488 140.509 190.495 140.509 185.57V159.412Z" fill="#C4C4C4" fill-opacity="0.16" stroke="black" stroke-width="1.189"/>
<path d="M140.509 159.412C140.509 154.487 144.501 150.495 149.426 150.495H159.532V188.543H149.426C144.501 188.543 140.509 184.55 140.509 179.625V159.412Z" fill="#C4C4C4" fill-opacity="0.16" stroke="black" stroke-width="1.189"/>
<path d="M182.124 167.141H192.23C197.155 167.141 201.148 171.133 201.148 176.058V193.893C201.148 198.818 197.155 202.811 192.23 202.811H182.124V167.141Z" fill="#C4C4C4" fill-opacity="0.16" stroke="black" stroke-width="1.189"/>
<path d="M182.124 177.842H192.23C197.155 177.842 201.148 181.835 201.148 186.76V193.894C201.148 198.819 197.155 202.811 192.23 202.811H182.124V177.842Z" fill="#C4C4C4" fill-opacity="0.16" stroke="black" stroke-width="1.189"/>
<path d="M182.124 156.44H192.23C197.155 156.44 201.148 160.433 201.148 165.358V193.894C201.148 198.819 197.155 202.811 192.23 202.811H182.124V156.44Z" fill="#C4C4C4" fill-opacity="0.16" stroke="black" stroke-width="1.189"/>
<rect x="161.91" y="167.141" width="19.024" height="19.024" rx="8.9175" fill="#C4C4C4" fill-opacity="0.16" stroke="black" stroke-width="1.189"/>
<path d="M182.124 187.354H193.419C197.687 187.354 201.148 190.814 201.148 195.083C201.148 199.351 197.687 202.811 193.419 202.811H182.124V187.354Z" fill="#C4C4C4" fill-opacity="0.16" stroke="black" stroke-width="1.189"/>
<path d="M144.163 248.563V236.38L142.009 238.96H139.933L143.6 234.595H145.773V248.563H144.163ZM150.926 248.563V243.325C150.926 242.886 151.029 242.491 151.236 242.142C151.443 241.78 151.721 241.495 152.071 241.288C152.433 241.082 152.834 240.978 153.273 240.978H162.682C162.889 240.978 163.064 240.907 163.206 240.765C163.361 240.609 163.439 240.428 163.439 240.221V236.943C163.439 236.736 163.361 236.561 163.206 236.419C163.064 236.264 162.889 236.186 162.682 236.186H153.273C153.066 236.186 152.885 236.264 152.73 236.419C152.588 236.561 152.517 236.736 152.517 236.943V237.486H150.926V236.943C150.926 236.503 151.029 236.109 151.236 235.759C151.443 235.397 151.721 235.113 152.071 234.906C152.433 234.686 152.834 234.576 153.273 234.576H162.682C163.109 234.576 163.497 234.686 163.846 234.906C164.208 235.113 164.493 235.397 164.7 235.759C164.92 236.109 165.03 236.503 165.03 236.943V240.221C165.03 240.648 164.92 241.043 164.7 241.405C164.493 241.754 164.208 242.039 163.846 242.258C163.497 242.465 163.109 242.569 162.682 242.569H153.273C153.066 242.569 152.885 242.646 152.73 242.802C152.588 242.944 152.517 243.119 152.517 243.325V246.216C152.517 246.423 152.588 246.604 152.73 246.759C152.885 246.902 153.066 246.973 153.273 246.973H165.03V248.563H150.926ZM173.199 248.563C172.759 248.563 172.358 248.46 171.996 248.253C171.647 248.033 171.362 247.749 171.142 247.399C170.935 247.037 170.832 246.643 170.832 246.216V245.906H172.442V246.216C172.442 246.423 172.513 246.604 172.655 246.759C172.811 246.902 172.992 246.973 173.199 246.973H182.608C182.815 246.973 182.989 246.902 183.131 246.759C183.287 246.604 183.364 246.423 183.364 246.216V242.976C183.364 242.769 183.287 242.595 183.131 242.452C182.989 242.297 182.815 242.22 182.608 242.22H173.509V240.629H181.987C182.194 240.629 182.368 240.558 182.511 240.415C182.666 240.26 182.743 240.079 182.743 239.872V236.943C182.743 236.736 182.666 236.561 182.511 236.419C182.368 236.264 182.194 236.186 181.987 236.186H173.199C172.992 236.186 172.811 236.264 172.655 236.419C172.513 236.561 172.442 236.736 172.442 236.943V237.447H170.832V236.943C170.832 236.503 170.935 236.109 171.142 235.759C171.362 235.397 171.647 235.113 171.996 234.906C172.358 234.686 172.759 234.576 173.199 234.576H181.987C182.427 234.576 182.821 234.686 183.17 234.906C183.532 235.113 183.817 235.397 184.024 235.759C184.231 236.109 184.334 236.503 184.334 236.943V239.872C184.334 240.053 184.308 240.234 184.257 240.415C184.218 240.584 184.166 240.739 184.101 240.881C184.425 241.191 184.645 241.534 184.761 241.909C184.89 242.284 184.955 242.64 184.955 242.976V246.216C184.955 246.643 184.845 247.037 184.625 247.399C184.418 247.749 184.134 248.033 183.772 248.253C183.422 248.46 183.034 248.563 182.608 248.563H173.199ZM199.567 248.563V244.955H189.828V243.17L199.373 234.576H201.157V243.364H203.33V244.955H201.157V248.563H199.567ZM191.865 243.364H199.567V236.729L191.865 243.364ZM220.381 248.563C219.942 248.563 219.541 248.46 219.179 248.253C218.829 248.033 218.551 247.749 218.344 247.399C218.137 247.037 218.034 246.643 218.034 246.216V245.653H219.625V246.216C219.625 246.423 219.696 246.604 219.838 246.759C219.993 246.902 220.174 246.973 220.381 246.973H229.79C229.997 246.973 230.172 246.902 230.314 246.759C230.469 246.604 230.547 246.423 230.547 246.216V242.918C230.547 242.711 230.469 242.537 230.314 242.394C230.172 242.239 229.997 242.161 229.79 242.161H218.034V234.576H232.138V236.186H220.381C220.174 236.186 219.993 236.264 219.838 236.419C219.696 236.561 219.625 236.736 219.625 236.943V239.795C219.625 240.002 219.696 240.183 219.838 240.338C219.993 240.493 220.174 240.571 220.381 240.571H229.79C230.217 240.571 230.605 240.674 230.954 240.881C231.317 241.088 231.601 241.373 231.808 241.735C232.028 242.084 232.138 242.478 232.138 242.918V246.216C232.138 246.643 232.028 247.037 231.808 247.399C231.601 247.749 231.317 248.033 230.954 248.253C230.605 248.46 230.217 248.563 229.79 248.563H220.381ZM240.365 248.563C239.925 248.563 239.524 248.46 239.162 248.253C238.813 248.033 238.535 247.749 238.328 247.399C238.121 247.037 238.018 246.643 238.018 246.216V236.943C238.018 236.503 238.121 236.109 238.328 235.759C238.535 235.397 238.813 235.113 239.162 234.906C239.524 234.686 239.925 234.576 240.365 234.576H249.677V236.186H240.365C240.158 236.186 239.977 236.264 239.822 236.419C239.679 236.561 239.608 236.736 239.608 236.943V239.736C239.608 239.943 239.679 240.124 239.822 240.28C239.977 240.435 240.158 240.512 240.365 240.512H249.774C250.201 240.512 250.589 240.616 250.938 240.823C251.3 241.03 251.585 241.314 251.792 241.676C252.011 242.026 252.121 242.42 252.121 242.86V246.216C252.121 246.643 252.011 247.037 251.792 247.399C251.585 247.749 251.3 248.033 250.938 248.253C250.589 248.46 250.201 248.563 249.774 248.563H240.365ZM240.365 246.973H249.774C249.981 246.973 250.155 246.902 250.298 246.759C250.453 246.604 250.531 246.423 250.531 246.216V242.86C250.531 242.653 250.453 242.478 250.298 242.336C250.155 242.181 249.981 242.103 249.774 242.103H239.608V246.216C239.608 246.423 239.679 246.604 239.822 246.759C239.977 246.902 240.158 246.973 240.365 246.973ZM266.833 248.563V236.943C266.833 236.736 266.755 236.561 266.6 236.419C266.458 236.264 266.283 236.186 266.076 236.186H256.764V234.576H266.076C266.503 234.576 266.891 234.686 267.24 234.906C267.602 235.113 267.887 235.397 268.094 235.759C268.313 236.109 268.423 236.503 268.423 236.943V248.563H266.833ZM276.846 248.563C276.406 248.563 276.005 248.46 275.643 248.253C275.294 248.033 275.016 247.749 274.809 247.399C274.602 247.037 274.499 246.643 274.499 246.216V242.918C274.499 242.659 274.55 242.401 274.654 242.142C274.757 241.87 274.9 241.612 275.081 241.366C274.9 241.12 274.757 240.862 274.654 240.59C274.55 240.318 274.499 240.053 274.499 239.795V236.943C274.499 236.503 274.602 236.109 274.809 235.759C275.016 235.397 275.294 235.113 275.643 234.906C276.005 234.686 276.406 234.576 276.846 234.576H286.255C286.617 234.576 286.953 234.673 287.264 234.867C287.587 235.048 287.865 235.294 288.098 235.604C288.344 235.902 288.512 236.219 288.602 236.555V239.795C288.602 240.312 288.408 240.836 288.02 241.366C288.408 241.87 288.602 242.388 288.602 242.918V246.216C288.602 246.643 288.492 247.037 288.273 247.399C288.066 247.749 287.781 248.033 287.419 248.253C287.07 248.46 286.682 248.563 286.255 248.563H276.846ZM276.846 246.973H286.255C286.462 246.973 286.637 246.902 286.779 246.759C286.934 246.604 287.012 246.423 287.012 246.216V242.918C287.012 242.711 286.934 242.537 286.779 242.394C286.637 242.239 286.462 242.161 286.255 242.161H276.846C276.639 242.161 276.458 242.239 276.303 242.394C276.161 242.537 276.089 242.711 276.089 242.918V246.216C276.089 246.423 276.161 246.604 276.303 246.759C276.458 246.902 276.639 246.973 276.846 246.973ZM276.846 240.784H286.255C286.462 240.784 286.637 240.713 286.779 240.571C286.934 240.415 287.012 240.234 287.012 240.027V236.962C287.012 236.755 286.934 236.581 286.779 236.438C286.637 236.283 286.462 236.206 286.255 236.206H276.846C276.639 236.206 276.458 236.283 276.303 236.438C276.161 236.581 276.089 236.755 276.089 236.962V240.027C276.089 240.234 276.161 240.415 276.303 240.571C276.458 240.713 276.639 240.784 276.846 240.784ZM305.974 248.563C305.638 248.563 305.314 248.499 305.004 248.369C304.707 248.227 304.448 248.04 304.228 247.807C304.008 247.561 303.847 247.283 303.743 246.973H315.383C315.59 246.973 315.765 246.902 315.907 246.759C316.062 246.604 316.14 246.423 316.14 246.216V243.403C316.14 243.196 316.062 243.022 315.907 242.879C315.765 242.724 315.59 242.646 315.383 242.646H305.974C305.534 242.646 305.133 242.543 304.771 242.336C304.422 242.116 304.138 241.832 303.918 241.482C303.711 241.12 303.607 240.726 303.607 240.299V236.943C303.607 236.503 303.711 236.109 303.918 235.759C304.138 235.397 304.422 235.113 304.771 234.906C305.133 234.686 305.534 234.576 305.974 234.576H315.383C315.81 234.576 316.198 234.686 316.547 234.906C316.909 235.113 317.194 235.397 317.401 235.759C317.621 236.109 317.73 236.503 317.73 236.943V246.216C317.73 246.643 317.621 247.037 317.401 247.399C317.194 247.749 316.909 248.033 316.547 248.253C316.198 248.46 315.81 248.563 315.383 248.563H305.974ZM305.974 241.056H316.14V236.943C316.14 236.736 316.062 236.561 315.907 236.419C315.765 236.264 315.59 236.186 315.383 236.186H305.974C305.767 236.186 305.586 236.264 305.431 236.419C305.289 236.561 305.217 236.736 305.217 236.943V240.299C305.217 240.506 305.289 240.687 305.431 240.842C305.586 240.985 305.767 241.056 305.974 241.056ZM326.017 248.563C325.577 248.563 325.176 248.46 324.814 248.253C324.465 248.033 324.187 247.749 323.98 247.399C323.773 247.037 323.669 246.643 323.669 246.216V236.962C323.669 236.523 323.773 236.128 323.98 235.779C324.187 235.417 324.465 235.132 324.814 234.925C325.176 234.705 325.577 234.595 326.017 234.595H335.426C335.852 234.595 336.24 234.705 336.59 234.925C336.952 235.132 337.236 235.417 337.443 235.779C337.663 236.128 337.773 236.523 337.773 236.962V246.216C337.773 246.643 337.663 247.037 337.443 247.399C337.236 247.749 336.952 248.033 336.59 248.253C336.24 248.46 335.852 248.563 335.426 248.563H326.017ZM325.454 246.973H335.426C335.633 246.973 335.807 246.902 335.949 246.759C336.105 246.604 336.182 246.423 336.182 246.216V238.126L325.454 246.973ZM325.26 245.052L335.969 236.206H326.017C325.81 236.206 325.629 236.283 325.473 236.438C325.331 236.581 325.26 236.755 325.26 236.962V245.052ZM346.076 248.563C345.636 248.563 345.235 248.46 344.873 248.253C344.524 248.033 344.246 247.749 344.039 247.399C343.832 247.037 343.729 246.643 343.729 246.216V236.962C343.729 236.523 343.832 236.128 344.039 235.779C344.246 235.417 344.524 235.132 344.873 234.925C345.235 234.705 345.636 234.595 346.076 234.595H355.485C355.912 234.595 356.3 234.705 356.649 234.925C357.011 235.132 357.296 235.417 357.503 235.779C357.722 236.128 357.832 236.523 357.832 236.962V246.216C357.832 246.643 357.722 247.037 357.503 247.399C357.296 247.749 357.011 248.033 356.649 248.253C356.3 248.46 355.912 248.563 355.485 248.563H346.076ZM345.513 246.973H355.485C355.692 246.973 355.867 246.902 356.009 246.759C356.164 246.604 356.242 246.423 356.242 246.216V238.126L345.513 246.973ZM345.319 245.052L356.028 236.206H346.076C345.869 236.206 345.688 236.283 345.533 236.438C345.391 236.581 345.319 236.755 345.319 236.962V245.052ZM366.135 248.563C365.696 248.563 365.295 248.46 364.932 248.253C364.583 248.033 364.305 247.749 364.098 247.399C363.891 247.037 363.788 246.643 363.788 246.216V236.962C363.788 236.523 363.891 236.128 364.098 235.779C364.305 235.417 364.583 235.132 364.932 234.925C365.295 234.705 365.696 234.595 366.135 234.595H375.544C375.971 234.595 376.359 234.705 376.708 234.925C377.07 235.132 377.355 235.417 377.562 235.779C377.782 236.128 377.892 236.523 377.892 236.962V246.216C377.892 246.643 377.782 247.037 377.562 247.399C377.355 247.749 377.07 248.033 376.708 248.253C376.359 248.46 375.971 248.563 375.544 248.563H366.135ZM365.573 246.973H375.544C375.751 246.973 375.926 246.902 376.068 246.759C376.223 246.604 376.301 246.423 376.301 246.216V238.126L365.573 246.973ZM365.379 245.052L376.087 236.206H366.135C365.928 236.206 365.747 236.283 365.592 236.438C365.45 236.581 365.379 236.755 365.379 236.962V245.052Z" fill="black"/>
<path d="M150.318 277.289H148.803L142.711 268.051V277.289H141.196V265.67H142.711L148.803 274.892V265.67H150.318V277.289ZM152.334 272.695C152.334 271.763 152.523 270.947 152.9 270.248C153.277 269.538 153.793 268.988 154.448 268.6C155.114 268.211 155.852 268.017 156.662 268.017C157.461 268.017 158.155 268.189 158.743 268.533C159.331 268.877 159.769 269.31 160.058 269.832V268.167H161.589V277.289H160.058V275.591C159.758 276.124 159.309 276.568 158.709 276.923C158.121 277.267 157.433 277.439 156.645 277.439C155.835 277.439 155.103 277.239 154.448 276.84C153.793 276.44 153.277 275.88 152.9 275.158C152.523 274.437 152.334 273.616 152.334 272.695ZM160.058 272.711C160.058 272.023 159.919 271.424 159.642 270.914C159.364 270.403 158.987 270.015 158.51 269.748C158.044 269.471 157.528 269.332 156.962 269.332C156.396 269.332 155.88 269.465 155.414 269.732C154.947 269.998 154.576 270.387 154.298 270.897C154.021 271.407 153.882 272.007 153.882 272.695C153.882 273.394 154.021 274.004 154.298 274.526C154.576 275.036 154.947 275.43 155.414 275.708C155.88 275.974 156.396 276.107 156.962 276.107C157.528 276.107 158.044 275.974 158.51 275.708C158.987 275.43 159.364 275.036 159.642 274.526C159.919 274.004 160.058 273.399 160.058 272.711ZM167.545 275.891L170.375 268.167H171.989L168.41 277.289H166.646L163.067 268.167H164.698L167.545 275.891ZM181.803 272.378C181.803 272.667 181.786 272.972 181.753 273.294H174.462C174.517 274.193 174.823 274.898 175.378 275.408C175.943 275.907 176.626 276.157 177.425 276.157C178.08 276.157 178.623 276.007 179.056 275.708C179.5 275.397 179.811 274.986 179.988 274.476H181.62C181.376 275.353 180.887 276.068 180.155 276.623C179.423 277.167 178.513 277.439 177.425 277.439C176.559 277.439 175.783 277.245 175.095 276.856C174.418 276.468 173.885 275.919 173.497 275.208C173.108 274.487 172.914 273.655 172.914 272.711C172.914 271.768 173.103 270.941 173.48 270.231C173.857 269.521 174.384 268.977 175.061 268.6C175.749 268.211 176.537 268.017 177.425 268.017C178.291 268.017 179.056 268.206 179.722 268.583C180.388 268.961 180.898 269.482 181.254 270.148C181.62 270.803 181.803 271.546 181.803 272.378ZM180.238 272.062C180.238 271.485 180.111 270.991 179.855 270.581C179.6 270.159 179.25 269.843 178.807 269.632C178.374 269.41 177.891 269.299 177.358 269.299C176.593 269.299 175.938 269.543 175.394 270.031C174.861 270.52 174.556 271.197 174.479 272.062H180.238ZM183.236 272.695C183.236 271.763 183.425 270.947 183.802 270.248C184.18 269.538 184.696 268.988 185.35 268.6C186.016 268.211 186.76 268.017 187.581 268.017C188.291 268.017 188.952 268.184 189.562 268.517C190.172 268.838 190.638 269.266 190.96 269.798V264.971H192.492V277.289H190.96V275.575C190.661 276.118 190.217 276.568 189.628 276.923C189.04 277.267 188.352 277.439 187.564 277.439C186.754 277.439 186.016 277.239 185.35 276.84C184.696 276.44 184.18 275.88 183.802 275.158C183.425 274.437 183.236 273.616 183.236 272.695ZM190.96 272.711C190.96 272.023 190.821 271.424 190.544 270.914C190.267 270.403 189.889 270.015 189.412 269.748C188.946 269.471 188.43 269.332 187.864 269.332C187.298 269.332 186.782 269.465 186.316 269.732C185.85 269.998 185.478 270.387 185.201 270.897C184.923 271.407 184.784 272.007 184.784 272.695C184.784 273.394 184.923 274.004 185.201 274.526C185.478 275.036 185.85 275.43 186.316 275.708C186.782 275.974 187.298 276.107 187.864 276.107C188.43 276.107 188.946 275.974 189.412 275.708C189.889 275.43 190.267 275.036 190.544 274.526C190.821 274.004 190.96 273.399 190.96 272.711ZM208.428 265.687V277.289H206.913V272.029H201.004V277.289H199.489V265.687H201.004V270.78H206.913V265.687H208.428ZM210.449 272.695C210.449 271.763 210.637 270.947 211.015 270.248C211.392 269.538 211.908 268.988 212.563 268.6C213.229 268.211 213.967 268.017 214.777 268.017C215.576 268.017 216.269 268.189 216.857 268.533C217.446 268.877 217.884 269.31 218.172 269.832V268.167H219.704V277.289H218.172V275.591C217.873 276.124 217.423 276.568 216.824 276.923C216.236 277.267 215.548 277.439 214.76 277.439C213.95 277.439 213.217 277.239 212.563 276.84C211.908 276.44 211.392 275.88 211.015 275.158C210.637 274.437 210.449 273.616 210.449 272.695ZM218.172 272.711C218.172 272.023 218.034 271.424 217.756 270.914C217.479 270.403 217.102 270.015 216.624 269.748C216.158 269.471 215.642 269.332 215.076 269.332C214.51 269.332 213.994 269.465 213.528 269.732C213.062 269.998 212.69 270.387 212.413 270.897C212.135 271.407 211.997 272.007 211.997 272.695C211.997 273.394 212.135 274.004 212.413 274.526C212.69 275.036 213.062 275.43 213.528 275.708C213.994 275.974 214.51 276.107 215.076 276.107C215.642 276.107 216.158 275.974 216.624 275.708C217.102 275.43 217.479 275.036 217.756 274.526C218.034 274.004 218.172 273.399 218.172 272.711ZM225.493 277.439C224.794 277.439 224.167 277.322 223.612 277.089C223.057 276.845 222.619 276.512 222.297 276.091C221.975 275.658 221.798 275.164 221.764 274.609H223.329C223.373 275.064 223.584 275.436 223.962 275.724C224.35 276.013 224.855 276.157 225.476 276.157C226.053 276.157 226.508 276.03 226.841 275.774C227.174 275.519 227.341 275.197 227.341 274.809C227.341 274.409 227.163 274.115 226.808 273.927C226.453 273.727 225.904 273.533 225.16 273.344C224.483 273.166 223.928 272.989 223.496 272.811C223.074 272.623 222.708 272.351 222.397 271.996C222.097 271.629 221.947 271.152 221.947 270.564C221.947 270.098 222.086 269.671 222.364 269.282C222.641 268.894 223.035 268.589 223.545 268.367C224.056 268.134 224.639 268.017 225.293 268.017C226.303 268.017 227.119 268.272 227.74 268.783C228.362 269.293 228.695 269.993 228.739 270.88H227.224C227.191 270.403 226.997 270.02 226.642 269.732C226.298 269.443 225.832 269.299 225.243 269.299C224.7 269.299 224.267 269.416 223.945 269.649C223.623 269.882 223.462 270.187 223.462 270.564C223.462 270.864 223.557 271.113 223.745 271.313C223.945 271.502 224.189 271.657 224.478 271.779C224.777 271.89 225.188 272.018 225.709 272.162C226.364 272.34 226.897 272.517 227.307 272.695C227.718 272.861 228.068 273.116 228.356 273.46C228.656 273.804 228.811 274.254 228.822 274.809C228.822 275.308 228.684 275.758 228.406 276.157C228.129 276.557 227.735 276.873 227.224 277.106C226.725 277.328 226.148 277.439 225.493 277.439ZM230.395 272.695C230.395 271.763 230.583 270.947 230.961 270.248C231.338 269.538 231.854 268.988 232.509 268.6C233.175 268.211 233.912 268.017 234.723 268.017C235.522 268.017 236.215 268.189 236.803 268.533C237.392 268.877 237.83 269.31 238.118 269.832V268.167H239.65V277.289H238.118V275.591C237.819 276.124 237.369 276.568 236.77 276.923C236.182 277.267 235.494 277.439 234.706 277.439C233.896 277.439 233.163 277.239 232.509 276.84C231.854 276.44 231.338 275.88 230.961 275.158C230.583 274.437 230.395 273.616 230.395 272.695ZM238.118 272.711C238.118 272.023 237.98 271.424 237.702 270.914C237.425 270.403 237.047 270.015 236.57 269.748C236.104 269.471 235.588 269.332 235.022 269.332C234.456 269.332 233.94 269.465 233.474 269.732C233.008 269.998 232.636 270.387 232.359 270.897C232.081 271.407 231.943 272.007 231.943 272.695C231.943 273.394 232.081 274.004 232.359 274.526C232.636 275.036 233.008 275.43 233.474 275.708C233.94 275.974 234.456 276.107 235.022 276.107C235.588 276.107 236.104 275.974 236.57 275.708C237.047 275.43 237.425 275.036 237.702 274.526C237.98 274.004 238.118 273.399 238.118 272.711ZM246.654 268.001C247.764 268.001 248.663 268.339 249.351 269.016C250.039 269.682 250.383 270.647 250.383 271.912V277.289H248.885V272.129C248.885 271.219 248.657 270.525 248.202 270.048C247.747 269.56 247.126 269.316 246.338 269.316C245.539 269.316 244.901 269.565 244.424 270.065C243.957 270.564 243.724 271.291 243.724 272.245V277.289H242.21V268.167H243.724V269.465C244.024 268.999 244.429 268.639 244.94 268.383C245.461 268.128 246.033 268.001 246.654 268.001Z" fill="black"/>
<path d="M330.032 270.858C330.032 268.949 330.343 267.462 330.964 266.396C331.586 265.32 332.673 264.782 334.227 264.782C335.769 264.782 336.851 265.32 337.473 266.396C338.094 267.462 338.405 268.949 338.405 270.858C338.405 272.8 338.094 274.309 337.473 275.385C336.851 276.462 335.769 277 334.227 277C332.673 277 331.586 276.462 330.964 275.385C330.343 274.309 330.032 272.8 330.032 270.858ZM336.907 270.858C336.907 269.892 336.84 269.077 336.707 268.411C336.585 267.734 336.324 267.19 335.925 266.779C335.536 266.369 334.97 266.163 334.227 266.163C333.472 266.163 332.895 266.369 332.496 266.779C332.107 267.19 331.846 267.734 331.713 268.411C331.591 269.077 331.53 269.892 331.53 270.858C331.53 271.856 331.591 272.694 331.713 273.371C331.846 274.048 332.107 274.592 332.496 275.002C332.895 275.413 333.472 275.618 334.227 275.618C334.97 275.618 335.536 275.413 335.925 275.002C336.324 274.592 336.585 274.048 336.707 273.371C336.84 272.694 336.907 271.856 336.907 270.858ZM342.682 270.741C342.06 270.497 341.583 270.142 341.25 269.676C340.917 269.21 340.751 268.644 340.751 267.978C340.751 267.379 340.901 266.84 341.2 266.363C341.5 265.875 341.944 265.492 342.532 265.215C343.131 264.926 343.853 264.782 344.696 264.782C345.539 264.782 346.255 264.926 346.843 265.215C347.443 265.492 347.892 265.875 348.192 266.363C348.502 266.84 348.658 267.379 348.658 267.978C348.658 268.622 348.486 269.187 348.142 269.676C347.798 270.153 347.326 270.508 346.727 270.741C347.415 270.952 347.959 271.324 348.358 271.856C348.769 272.378 348.974 273.011 348.974 273.754C348.974 274.475 348.796 275.108 348.441 275.652C348.086 276.184 347.581 276.6 346.927 276.9C346.283 277.189 345.539 277.333 344.696 277.333C343.853 277.333 343.109 277.189 342.465 276.9C341.833 276.6 341.339 276.184 340.984 275.652C340.629 275.108 340.451 274.475 340.451 273.754C340.451 273.011 340.651 272.372 341.051 271.84C341.45 271.307 341.994 270.941 342.682 270.741ZM347.193 268.161C347.193 267.484 346.971 266.962 346.527 266.596C346.083 266.23 345.473 266.047 344.696 266.047C343.93 266.047 343.325 266.23 342.882 266.596C342.438 266.962 342.216 267.49 342.216 268.178C342.216 268.799 342.443 269.298 342.898 269.676C343.364 270.053 343.964 270.242 344.696 270.242C345.44 270.242 346.039 270.053 346.494 269.676C346.96 269.287 347.193 268.782 347.193 268.161ZM344.696 271.407C343.875 271.407 343.203 271.601 342.682 271.99C342.16 272.367 341.899 272.938 341.899 273.704C341.899 274.414 342.149 274.986 342.649 275.419C343.159 275.851 343.842 276.068 344.696 276.068C345.551 276.068 346.227 275.851 346.727 275.419C347.226 274.986 347.476 274.414 347.476 273.704C347.476 272.961 347.221 272.395 346.71 272.006C346.2 271.607 345.528 271.407 344.696 271.407ZM356.895 261.319L352.334 279.83H350.836L355.38 261.319H356.895ZM358.719 275.785C360.129 274.653 361.233 273.726 362.032 273.005C362.831 272.273 363.502 271.512 364.046 270.724C364.601 269.925 364.878 269.143 364.878 268.377C364.878 267.656 364.701 267.09 364.346 266.679C364.002 266.258 363.441 266.047 362.664 266.047C361.91 266.047 361.322 266.286 360.9 266.763C360.489 267.229 360.267 267.856 360.234 268.644H358.769C358.814 267.401 359.191 266.441 359.901 265.764C360.611 265.087 361.527 264.749 362.648 264.749C363.791 264.749 364.695 265.065 365.361 265.697C366.038 266.33 366.377 267.201 366.377 268.311C366.377 269.232 366.099 270.131 365.544 271.007C365 271.873 364.379 272.639 363.68 273.305C362.981 273.959 362.087 274.725 361 275.602H366.726V276.867H358.719V275.785ZM376.151 266.28H370.308V270.075C370.563 269.72 370.941 269.432 371.44 269.21C371.94 268.977 372.478 268.86 373.055 268.86C373.976 268.86 374.725 269.054 375.302 269.443C375.879 269.82 376.29 270.314 376.534 270.924C376.789 271.523 376.917 272.162 376.917 272.839C376.917 273.638 376.767 274.353 376.467 274.986C376.168 275.618 375.707 276.118 375.086 276.484C374.475 276.85 373.715 277.033 372.805 277.033C371.64 277.033 370.697 276.734 369.975 276.134C369.254 275.535 368.816 274.736 368.66 273.737H370.142C370.286 274.37 370.591 274.864 371.057 275.219C371.523 275.574 372.112 275.752 372.822 275.752C373.698 275.752 374.359 275.491 374.803 274.969C375.247 274.437 375.468 273.737 375.468 272.872C375.468 272.006 375.247 271.34 374.803 270.874C374.359 270.397 373.704 270.158 372.838 270.158C372.25 270.158 371.734 270.303 371.29 270.591C370.858 270.869 370.541 271.252 370.342 271.74H368.91V264.948H376.151V266.28Z" fill="black"/>
<path d="M450.699 100.012C450.061 98.9766 450.767 97.5845 451.983 97.5845C452.391 97.5845 452.785 97.7547 453.061 98.0539C459.898 105.466 458.841 109.839 453.074 117.223C452.791 117.586 452.353 117.797 451.892 117.797C450.682 117.797 449.961 116.441 450.576 115.398C453.933 109.703 454.206 105.701 450.699 100.012Z" fill="#F9F9F9"/>
<path d="M458.609 97.5207C458.088 96.4731 458.825 95.2065 459.995 95.2065C460.482 95.2065 460.945 95.4421 461.227 95.8399C467.683 104.954 466.68 110.351 461.219 119.436C460.944 119.896 460.444 120.176 459.908 120.176C458.754 120.176 458.011 118.949 458.504 117.904C462.107 110.266 462.408 105.15 458.609 97.5207Z" fill="#F9F9F9"/>
<path d="M466.778 95.1233C466.305 94.057 467.066 92.8281 468.233 92.8281C468.769 92.8281 469.273 93.1048 469.555 93.5609C476.007 103.974 475.001 110.142 469.538 120.527C469.268 121.042 468.731 121.364 468.149 121.364C467.001 121.364 466.238 120.176 466.682 119.118C470.47 110.076 470.791 104.154 466.778 95.1233Z" fill="#F9F9F9"/>
<path d="M475.015 93.9166C474.57 92.843 475.343 91.6396 476.506 91.6396C477.07 91.6396 477.597 91.9415 477.877 92.4316C484.333 103.718 483.323 110.401 477.855 121.66C477.59 122.207 477.032 122.554 476.424 122.554C475.283 122.554 474.509 121.391 474.924 120.327C478.816 110.345 479.147 103.888 475.015 93.9166Z" fill="#F9F9F9"/>
<defs>
<filter id="filter0_d_19_800" x="0" y="0" width="584" height="442" filterUnits="userSpaceOnUse" color-interpolation-filters="sRGB">
<feFlood flood-opacity="0" result="BackgroundImageFix"/>
<feColorMatrix in="SourceAlpha" type="matrix" values="0 0 0 0 0 0 0 0 0 0 0 0 0 0 0 0 0 0 127 0" result="hardAlpha"/>
<feOffset dx="-13" dy="17"/>
<feGaussianBlur stdDeviation="48"/>
<feComposite in2="hardAlpha" operator="out"/>
<feColorMatrix type="matrix" values="0 0 0 0 0 0 0 0 0 0 0 0 0 0 0 0 0 0 0.05 0"/>
<feBlend mode="normal" in2="BackgroundImageFix" result="effect1_dropShadow_19_800"/>
<feBlend mode="normal" in="SourceGraphic" in2="effect1_dropShadow_19_800" result="shape"/>
</filter>
<radialGradient id="paint0_angular_19_800" cx="0" cy="0" r="1" gradientUnits="userSpaceOnUse" gradientTransform="translate(466 183.265) rotate(68.9802) scale(156.124 71.4222)">
<stop offset="0.279167" stop-color="#E754FF"/>
<stop offset="1" stop-color="#FF5D5D"/>
</radialGradient>
</defs>
</svg>
