<svg width="143" height="31" viewBox="0 0 143 31" fill="none" xmlns="http://www.w3.org/2000/svg">
<path d="M7.55087 0.710938C5.62184 1.78262 1.63516 4.0546 1.12075 4.56901L19.7681 16.7863V8.42709L7.55087 0.710938Z" fill="black"/>
<path d="M25.4661 18.8026C25.3716 16.5979 25.1253 12.0159 24.8956 11.3256L5.62184 22.5285L13.0962 26.2715L25.4661 18.8026Z" fill="black"/>
<path d="M0.299491 24.6367C2.25721 25.6551 6.35085 27.7282 7.06363 27.8737L6.97355 5.58068L0 10.1899L0.299491 24.6367Z" fill="black"/>
<path d="M45.4288 1.5983H37.2947V23.4864H41.3766V15.3228H45.3993C50.4868 15.3228 53.4742 12.779 53.4742 8.46052C53.4742 4.14205 50.4868 1.5983 45.4288 1.5983ZM45.6063 12.1578H41.3766V4.7632H45.6063C47.9134 4.7632 49.2445 6.1534 49.2445 8.46052C49.2445 10.7677 47.8839 12.1578 45.6063 12.1578Z" fill="black"/>
<path d="M65.3833 8.638V13.7255H65.3241C65.3241 10.3536 63.3424 8.34221 60.0296 8.34221C56.3027 8.34221 54.1139 11.2113 54.1139 16.0622C54.1139 20.9131 56.3027 23.7822 60.0296 23.7822C63.3424 23.7822 65.3241 21.7709 65.3241 18.3693H65.3833V23.4864H69.2877V8.638H65.3833ZM61.8339 20.6765C59.4676 20.6765 58.0774 18.9609 58.0774 16.0622C58.0774 13.1635 59.4676 11.4184 61.8339 11.4184C64.2002 11.4184 65.5903 13.3114 65.5903 16.0622C65.5903 18.7834 64.2002 20.6765 61.8339 20.6765Z" fill="black"/>
<path d="M81.9522 8.638L78.5802 23.2202H78.521L75.1491 8.638H70.9785L74.8533 23.4864H78.0774L76.2731 30.2895H80.4436L86.1227 8.638H81.9522Z" fill="black"/>
<path d="M98.0399 8.638V13.7255H97.9807C97.9807 10.3536 95.999 8.34221 92.6862 8.34221C88.9593 8.34221 86.7705 11.2113 86.7705 16.0622C86.7705 20.9131 88.9593 23.7822 92.6862 23.7822C95.999 23.7822 97.9807 21.7709 97.9807 18.3693H98.0399V23.4864H101.944V8.638H98.0399ZM94.4905 20.6765C92.1242 20.6765 90.734 18.9609 90.734 16.0622C90.734 13.1635 92.1242 11.4184 94.4905 11.4184C96.8567 11.4184 98.2469 13.3114 98.2469 16.0622C98.2469 18.7834 96.8567 20.6765 94.4905 20.6765Z" fill="black"/>
<path d="M114.165 8.34221C110.852 8.34221 108.871 10.3536 108.871 13.7255H108.811V0.710938H104.907V23.4864H108.811V18.3693H108.871C108.871 21.7709 110.852 23.7822 114.165 23.7822C117.892 23.7822 120.11 20.9131 120.11 16.0622C120.11 11.2113 117.892 8.34221 114.165 8.34221ZM112.361 20.6765C109.994 20.6765 108.604 18.7834 108.604 16.0622C108.604 13.3114 109.994 11.4184 112.361 11.4184C114.727 11.4184 116.117 13.1635 116.117 16.0622C116.117 18.9609 114.727 20.6765 112.361 20.6765Z" fill="black"/>
<path d="M122.304 23.4864H126.208V0.710938H122.304V23.4864Z" fill="black"/>
<path d="M143 16.0622C143 11.1818 140.279 8.34221 135.724 8.34221C131.109 8.34221 128.388 11.1818 128.388 16.0622C128.388 20.9131 131.109 23.7822 135.724 23.7822C139.746 23.7822 142.468 21.7117 143 18.1919H139.214C138.829 19.8187 137.558 20.8244 135.724 20.8244C133.624 20.8244 132.322 19.2271 132.174 16.5059H143V16.0622ZM135.724 11.2705C137.676 11.2705 138.948 12.6903 139.184 15.1749H132.204C132.47 12.6903 133.742 11.2705 135.724 11.2705Z" fill="black"/>
</svg>
