<svg width="112" height="23" viewBox="0 0 112 23" fill="none" xmlns="http://www.w3.org/2000/svg">
<path d="M5.87148 0C4.37148 0.833333 1.27148 2.6 0.871483 3L15.3715 12.5V6L5.87148 0Z" fill="black"/>
<path d="M19.8022 14.0679C19.7287 12.3535 19.5371 8.79062 19.3586 8.25385L4.37148 16.9651L10.1834 19.8757L19.8022 14.0679Z" fill="black"/>
<path d="M0.232881 18.6045C1.75518 19.3963 4.93835 21.0083 5.49261 21.1215L5.42256 3.78666L0 7.37078L0.232881 18.6045Z" fill="black"/>
<path d="M35.325 0.690001H29V17.71H32.174V11.362H35.302C39.258 11.362 41.581 9.384 41.581 6.026C41.581 2.668 39.258 0.690001 35.325 0.690001ZM35.463 8.901H32.174V3.151H35.463C37.257 3.151 38.292 4.232 38.292 6.026C38.292 7.82 37.234 8.901 35.463 8.901Z" fill="black"/>
<path d="M50.8414 6.164V10.12H50.7954C50.7954 7.498 49.2544 5.934 46.6784 5.934C43.7804 5.934 42.0784 8.165 42.0784 11.937C42.0784 15.709 43.7804 17.94 46.6784 17.94C49.2544 17.94 50.7954 16.376 50.7954 13.731H50.8414V17.71H53.8774V6.164H50.8414ZM48.0814 15.525C46.2414 15.525 45.1604 14.191 45.1604 11.937C45.1604 9.683 46.2414 8.326 48.0814 8.326C49.9214 8.326 51.0024 9.798 51.0024 11.937C51.0024 14.053 49.9214 15.525 48.0814 15.525Z" fill="black"/>
<path d="M63.7252 6.164L61.1031 17.503H61.0571L58.4352 6.164H55.1922L58.2051 17.71H60.7122L59.3091 23H62.5522L66.9682 6.164H63.7252Z" fill="black"/>
<path d="M76.2348 6.164V10.12H76.1888C76.1888 7.498 74.6478 5.934 72.0718 5.934C69.1738 5.934 67.4718 8.165 67.4718 11.937C67.4718 15.709 69.1738 17.94 72.0718 17.94C74.6478 17.94 76.1888 16.376 76.1888 13.731H76.2348V17.71H79.2708V6.164H76.2348ZM73.4748 15.525C71.6348 15.525 70.5538 14.191 70.5538 11.937C70.5538 9.683 71.6348 8.326 73.4748 8.326C75.3148 8.326 76.3958 9.798 76.3958 11.937C76.3958 14.053 75.3148 15.525 73.4748 15.525Z" fill="black"/>
<path d="M88.7736 5.934C86.1976 5.934 84.6566 7.498 84.6566 10.12H84.6106V0H81.5746V17.71H84.6106V13.731H84.6566C84.6566 16.376 86.1976 17.94 88.7736 17.94C91.6716 17.94 93.3966 15.709 93.3966 11.937C93.3966 8.165 91.6716 5.934 88.7736 5.934ZM87.3706 15.525C85.5306 15.525 84.4496 14.053 84.4496 11.937C84.4496 9.798 85.5306 8.326 87.3706 8.326C89.2106 8.326 90.2916 9.683 90.2916 11.937C90.2916 14.191 89.2106 15.525 87.3706 15.525Z" fill="black"/>
<path d="M95.1024 17.71H98.1384V0H95.1024V17.71Z" fill="black"/>
<path d="M111.195 11.937C111.195 8.142 109.079 5.934 105.537 5.934C101.949 5.934 99.8334 8.142 99.8334 11.937C99.8334 15.709 101.949 17.94 105.537 17.94C108.665 17.94 110.781 16.33 111.195 13.593H108.251C107.952 14.858 106.963 15.64 105.537 15.64C103.904 15.64 102.892 14.398 102.777 12.282H111.195V11.937ZM105.537 8.211C107.055 8.211 108.044 9.315 108.228 11.247H102.8C103.007 9.315 103.996 8.211 105.537 8.211Z" fill="black"/>
</svg>
